<svg xmlns="http://www.w3.org/2000/svg" viewBox="0 0 287 68" width="100%" height="100%" fill-rule="evenodd" clip-rule="evenodd">
  <!-- Yellow Stars -->
  <g fill="#FFCC00">
    <path d="M 25.0 44.0 L 25.0 45.0 L 24.0 46.0 L 23.0 46.0 L 23.0 47.0 L 24.0 48.0 L 24.0 49.0 L 27.0 49.0 L 27.0 48.0 L 28.0 47.0 L 28.0 46.0 L 27.0 46.0 L 26.0 45.0 L 26.0 44.0 Z" />
    <path d="M 39.0 43.0 L 38.0 43.0 L 37.0 42.0 L 36.0 42.0 L 35.0 43.0 L 34.0 43.0 L 34.0 46.0 L 38.0 46.0 L 38.0 44.0 Z" />
    <path d="M 15.0 41.0 L 13.0 43.0 L 12.0 43.0 L 13.0 44.0 L 13.0 47.0 L 14.0 46.0 L 17.0 46.0 L 17.0 43.0 L 16.0 43.0 L 15.0 42.0 Z" />
    <path d="M 43.0 35.0 L 42.0 36.0 L 43.0 37.0 L 43.0 38.0 L 45.0 38.0 L 45.0 37.0 L 46.0 36.0 L 45.0 36.0 L 44.0 35.0 Z" />
    <path d="M 10.0 36.0 L 8.0 34.0 L 7.0 34.0 L 6.0 35.0 L 5.0 35.0 L 4.0 36.0 L 5.0 37.0 L 5.0 39.0 L 6.0 39.0 L 7.0 38.0 L 8.0 38.0 L 9.0 39.0 L 9.0 37.0 Z" />
    <path d="M 46.0 23.0 L 46.0 24.0 L 45.0 25.0 L 44.0 25.0 L 45.0 26.0 L 45.0 28.0 L 49.0 28.0 L 48.0 27.0 L 49.0 26.0 L 49.0 25.0 L 47.0 23.0 Z" />
    <path d="M 4.0 23.0 L 4.0 24.0 L 3.0 25.0 L 2.0 25.0 L 2.0 26.0 L 3.0 27.0 L 3.0 28.0 L 6.0 28.0 L 6.0 26.0 L 7.0 25.0 L 6.0 25.0 L 5.0 24.0 L 5.0 23.0 Z" />
    <path d="M 41.0 14.0 L 41.0 15.0 L 42.0 16.0 L 42.0 18.0 L 43.0 17.0 L 44.0 17.0 L 45.0 18.0 L 46.0 18.0 L 45.0 17.0 L 45.0 16.0 L 47.0 14.0 L 45.0 14.0 L 44.0 13.0 L 43.0 13.0 L 42.0 14.0 Z" />
    <path d="M 5.0 14.0 L 5.0 17.0 L 6.0 18.0 L 7.0 17.0 L 8.0 17.0 L 9.0 18.0 L 9.0 16.0 L 10.0 15.0 L 10.0 14.0 L 9.0 14.0 L 8.0 13.0 L 7.0 13.0 L 6.0 14.0 Z" />
    <path d="M 39.0 7.0 L 38.0 7.0 L 36.0 5.0 L 34.0 7.0 L 33.0 7.0 L 34.0 8.0 L 34.0 10.0 L 35.0 10.0 L 36.0 9.0 L 37.0 10.0 L 38.0 10.0 L 38.0 8.0 Z" />
    <path d="M 14.0 5.0 L 14.0 6.0 L 13.0 7.0 L 12.0 7.0 L 13.0 8.0 L 13.0 10.0 L 14.0 10.0 L 15.0 9.0 L 16.0 10.0 L 17.0 10.0 L 17.0 8.0 L 18.0 7.0 L 17.0 7.0 L 15.0 5.0 Z" />
    <path d="M 25.0 2.0 L 25.0 3.0 L 24.0 4.0 L 23.0 4.0 L 23.0 5.0 L 24.0 6.0 L 24.0 7.0 L 27.0 7.0 L 27.0 6.0 L 28.0 5.0 L 28.0 4.0 L 27.0 4.0 L 26.0 3.0 L 26.0 2.0 Z" />
  </g>
  <!-- Blue Text -->
  <g fill="#185896">
    <path d="M 272.0 47.0 L 271.0 48.0 L 271.0 50.0 L 273.0 50.0 L 274.0 49.0 L 279.0 49.0 L 281.0 51.0 L 281.0 52.0 L 280.0 53.0 L 279.0 53.0 L 278.0 54.0 L 274.0 54.0 L 273.0 55.0 L 272.0 55.0 L 270.0 57.0 L 270.0 58.0 L 269.0 59.0 L 269.0 61.0 L 270.0 62.0 L 270.0 63.0 L 271.0 64.0 L 272.0 64.0 L 273.0 65.0 L 278.0 65.0 L 279.0 64.0 L 280.0 64.0 L 281.0 63.0 L 282.0 64.0 L 285.0 64.0 L 285.0 52.0 L 284.0 51.0 L 284.0 50.0 L 283.0 49.0 L 283.0 48.0 L 282.0 48.0 L 281.0 47.0 Z M 281.0 55.0 L 282.0 56.0 L 282.0 58.0 L 281.0 59.0 L 281.0 60.0 L 278.0 63.0 L 275.0 63.0 L 273.0 61.0 L 273.0 58.0 L 274.0 57.0 L 275.0 57.0 L 276.0 56.0 L 278.0 56.0 L 279.0 55.0 Z" />
    <path d="M 246.0 47.0 L 244.0 47.0 L 243.0 48.0 L 243.0 64.0 L 244.0 65.0 L 245.0 65.0 L 246.0 64.0 Z" />
    <path d="M 225.0 47.0 L 223.0 47.0 L 222.0 48.0 L 222.0 64.0 L 223.0 65.0 L 224.0 65.0 L 226.0 63.0 L 226.0 48.0 Z" />
    <path d="M 196.0 47.0 L 195.0 48.0 L 194.0 48.0 L 191.0 51.0 L 191.0 52.0 L 190.0 53.0 L 190.0 59.0 L 191.0 60.0 L 191.0 61.0 L 194.0 64.0 L 196.0 64.0 L 197.0 65.0 L 202.0 65.0 L 203.0 64.0 L 204.0 64.0 L 205.0 63.0 L 206.0 63.0 L 207.0 62.0 L 207.0 61.0 L 208.0 60.0 L 208.0 58.0 L 209.0 57.0 L 209.0 56.0 L 208.0 55.0 L 208.0 52.0 L 207.0 51.0 L 207.0 50.0 L 205.0 48.0 L 204.0 48.0 L 203.0 47.0 Z M 198.0 49.0 L 201.0 49.0 L 205.0 53.0 L 205.0 59.0 L 202.0 62.0 L 201.0 62.0 L 200.0 63.0 L 198.0 63.0 L 194.0 59.0 L 194.0 53.0 L 195.0 52.0 L 195.0 51.0 L 196.0 50.0 L 197.0 50.0 Z" />
    <path d="M 231.0 43.0 L 231.0 46.0 L 229.0 48.0 L 229.0 49.0 L 230.0 49.0 L 231.0 50.0 L 231.0 62.0 L 234.0 65.0 L 238.0 65.0 L 239.0 64.0 L 239.0 63.0 L 236.0 63.0 L 235.0 62.0 L 235.0 60.0 L 234.0 59.0 L 234.0 51.0 L 236.0 49.0 L 239.0 49.0 L 239.0 48.0 L 238.0 47.0 L 235.0 47.0 L 234.0 46.0 L 234.0 43.0 Z" />
    <path d="M 245.0 38.0 L 244.0 39.0 L 243.0 39.0 L 243.0 42.0 L 244.0 43.0 L 245.0 43.0 L 247.0 41.0 L 247.0 40.0 Z" />
    <path d="M 224.0 38.0 L 223.0 39.0 L 222.0 39.0 L 222.0 42.0 L 223.0 42.0 L 224.0 43.0 L 226.0 41.0 L 226.0 40.0 Z" />
    <path d="M 183.0 36.0 L 171.0 36.0 L 171.0 64.0 L 172.0 65.0 L 173.0 65.0 L 174.0 64.0 L 174.0 55.0 L 176.0 53.0 L 184.0 53.0 L 185.0 52.0 L 186.0 52.0 L 187.0 51.0 L 187.0 50.0 L 189.0 48.0 L 189.0 41.0 L 187.0 39.0 L 187.0 38.0 L 186.0 38.0 L 185.0 37.0 L 184.0 37.0 Z M 174.0 41.0 L 176.0 39.0 L 182.0 39.0 L 185.0 42.0 L 185.0 48.0 L 184.0 49.0 L 183.0 49.0 L 182.0 50.0 L 181.0 50.0 L 180.0 51.0 L 176.0 51.0 L 174.0 49.0 Z" />
    <path d="M 253.0 33.0 L 252.0 34.0 L 252.0 64.0 L 253.0 65.0 L 254.0 65.0 L 255.0 64.0 L 255.0 58.0 L 256.0 57.0 L 257.0 57.0 L 264.0 64.0 L 266.0 64.0 L 267.0 65.0 L 268.0 64.0 L 266.0 62.0 L 266.0 61.0 L 260.0 55.0 L 260.0 54.0 L 266.0 48.0 L 266.0 47.0 L 263.0 47.0 L 262.0 48.0 L 261.0 48.0 L 256.0 53.0 L 255.0 52.0 L 255.0 34.0 L 254.0 33.0 Z" />
    <path d="M 214.0 33.0 L 213.0 34.0 L 213.0 62.0 L 215.0 64.0 L 216.0 64.0 L 217.0 65.0 L 219.0 65.0 L 219.0 62.0 L 218.0 62.0 L 216.0 60.0 L 216.0 34.0 L 215.0 33.0 Z" />
    <path d="M 146.0 33.0 L 145.0 34.0 L 143.0 34.0 L 141.0 36.0 L 140.0 36.0 L 137.0 39.0 L 137.0 40.0 L 135.0 42.0 L 135.0 44.0 L 134.0 45.0 L 134.0 55.0 L 135.0 56.0 L 135.0 57.0 L 136.0 58.0 L 136.0 59.0 L 140.0 63.0 L 141.0 63.0 L 143.0 65.0 L 145.0 65.0 L 146.0 66.0 L 154.0 66.0 L 155.0 65.0 L 157.0 65.0 L 158.0 64.0 L 159.0 64.0 L 161.0 62.0 L 162.0 62.0 L 162.0 61.0 L 165.0 58.0 L 165.0 57.0 L 166.0 56.0 L 166.0 53.0 L 167.0 52.0 L 167.0 47.0 L 166.0 46.0 L 166.0 43.0 L 165.0 42.0 L 165.0 41.0 L 159.0 35.0 L 158.0 35.0 L 157.0 34.0 L 155.0 34.0 L 154.0 33.0 Z M 149.0 41.0 L 151.0 41.0 L 152.0 42.0 L 154.0 42.0 L 157.0 45.0 L 157.0 46.0 L 158.0 47.0 L 158.0 52.0 L 157.0 53.0 L 157.0 54.0 L 154.0 57.0 L 152.0 57.0 L 151.0 58.0 L 149.0 58.0 L 148.0 57.0 L 147.0 57.0 L 143.0 53.0 L 143.0 52.0 L 142.0 51.0 L 142.0 48.0 L 143.0 47.0 L 143.0 46.0 L 147.0 42.0 L 148.0 42.0 Z" />
    <path d="M 101.0 33.0 L 101.0 66.0 L 110.0 66.0 L 110.0 58.0 L 111.0 57.0 L 115.0 57.0 L 116.0 58.0 L 116.0 59.0 L 117.0 60.0 L 117.0 61.0 L 119.0 63.0 L 119.0 64.0 L 121.0 66.0 L 130.0 66.0 L 130.0 65.0 L 129.0 64.0 L 129.0 63.0 L 128.0 62.0 L 128.0 61.0 L 126.0 59.0 L 126.0 58.0 L 125.0 57.0 L 125.0 56.0 L 124.0 55.0 L 124.0 54.0 L 125.0 53.0 L 125.0 52.0 L 126.0 51.0 L 126.0 50.0 L 127.0 49.0 L 127.0 41.0 L 126.0 40.0 L 126.0 39.0 L 124.0 37.0 L 124.0 36.0 L 123.0 36.0 L 121.0 34.0 L 120.0 34.0 L 119.0 33.0 Z M 110.0 41.0 L 111.0 40.0 L 117.0 40.0 L 120.0 43.0 L 120.0 47.0 L 117.0 50.0 L 111.0 50.0 L 110.0 49.0 Z" />
    <path d="M 68.0 33.0 L 68.0 57.0 L 69.0 58.0 L 69.0 59.0 L 70.0 60.0 L 70.0 61.0 L 73.0 64.0 L 74.0 64.0 L 75.0 65.0 L 76.0 65.0 L 77.0 66.0 L 85.0 66.0 L 86.0 65.0 L 87.0 65.0 L 88.0 64.0 L 89.0 64.0 L 92.0 61.0 L 92.0 60.0 L 93.0 59.0 L 93.0 58.0 L 94.0 57.0 L 94.0 33.0 L 86.0 33.0 L 85.0 34.0 L 85.0 55.0 L 83.0 57.0 L 79.0 57.0 L 77.0 55.0 L 77.0 34.0 L 76.0 33.0 Z" />
    <path d="M 45.0 33.0 L 45.0 34.0 L 47.0 36.0 L 46.0 37.0 L 46.0 38.0 L 45.0 39.0 L 42.0 39.0 L 41.0 38.0 L 41.0 37.0 L 41.0 66.0 L 61.0 66.0 L 61.0 61.0 L 60.0 62.0 L 59.0 62.0 L 58.0 61.0 L 58.0 60.0 L 57.0 59.0 L 56.0 59.0 L 55.0 60.0 L 54.0 60.0 L 53.0 59.0 L 49.0 59.0 L 48.0 60.0 L 47.0 60.0 L 45.0 62.0 L 44.0 62.0 L 42.0 60.0 L 42.0 58.0 L 44.0 56.0 L 45.0 57.0 L 47.0 57.0 L 47.0 54.0 L 48.0 53.0 L 50.0 53.0 L 51.0 52.0 L 52.0 52.0 L 53.0 51.0 L 59.0 51.0 L 59.0 50.0 L 60.0 49.0 L 60.0 47.0 L 59.0 46.0 L 58.0 46.0 L 58.0 48.0 L 56.0 50.0 L 55.0 49.0 L 55.0 48.0 L 54.0 48.0 L 53.0 47.0 L 53.0 46.0 L 51.0 46.0 L 49.0 44.0 L 49.0 41.0 L 50.0 40.0 L 59.0 40.0 L 60.0 39.0 L 61.0 39.0 L 61.0 33.0 Z M 48.0 51.0 L 49.0 50.0 L 50.0 51.0 L 49.0 52.0 Z" />
    <path d="M 43.0 33.0 L 41.0 33.0 L 41.0 35.0 L 42.0 35.0 L 43.0 34.0 Z" />
  </g>
</svg>