<svg xmlns="http://www.w3.org/2000/svg" viewBox="0 0 300 200" width="100%" height="100%" fill-rule="evenodd" clip-rule="evenodd">
  <!-- Yellow Stars -->
  <g fill="#FFCC00">
    <path d="M 30 107 L 30 108 L 29 109 L 28 109 L 28 110 L 29 111 L 29 112 L 32 112 L 32 111 L 33 110 L 33 109 L 32 109 L 31 108 L 31 107 Z" />
    <path d="M 44 106 L 43 106 L 42 105 L 41 105 L 40 106 L 39 106 L 39 109 L 43 109 L 43 107 Z" />
    <path d="M 20 104 L 18 106 L 17 106 L 18 107 L 18 110 L 19 109 L 22 109 L 22 106 L 21 106 L 20 105 Z" />
    <path d="M 48 98 L 47 99 L 48 100 L 48 101 L 50 101 L 50 100 L 51 99 L 50 99 L 49 98 Z" />
    <path d="M 15 99 L 13 97 L 12 97 L 11 98 L 10 98 L 9 99 L 10 100 L 10 102 L 11 102 L 12 101 L 13 101 L 14 102 L 14 100 Z" />
    <path d="M 51 86 L 51 87 L 50 88 L 49 88 L 50 89 L 50 91 L 54 91 L 53 90 L 54 89 L 54 88 L 52 86 Z" />
    <path d="M 9 86 L 9 87 L 8 88 L 7 88 L 7 89 L 8 90 L 8 91 L 11 91 L 11 89 L 12 88 L 11 88 L 10 87 L 10 86 Z" />
    <path d="M 46 77 L 46 78 L 47 79 L 47 81 L 48 80 L 49 80 L 50 81 L 51 81 L 50 80 L 50 79 L 52 77 L 50 77 L 49 76 L 48 76 L 47 77 Z" />
    <path d="M 10 77 L 10 80 L 11 81 L 12 80 L 13 80 L 14 81 L 14 79 L 15 78 L 15 77 L 14 77 L 13 76 L 12 76 L 11 77 Z" />
    <path d="M 44 70 L 43 70 L 41 68 L 39 70 L 38 70 L 39 71 L 39 73 L 40 73 L 41 72 L 42 73 L 43 73 L 43 71 Z" />
    <path d="M 19 68 L 19 69 L 18 70 L 17 70 L 18 71 L 18 73 L 19 73 L 20 72 L 21 73 L 22 73 L 22 71 L 23 70 L 22 70 L 20 68 Z" />
    <path d="M 30 65 L 30 66 L 29 67 L 28 67 L 28 68 L 29 69 L 29 70 L 32 70 L 32 69 L 33 68 L 33 67 L 32 67 L 31 66 L 31 65 Z" />
  </g>
  <!-- White Text -->
  <g fill="#FFFFFF">
    <path d="M 277 110 L 276 111 L 276 113 L 278 113 L 279 112 L 284 112 L 286 114 L 286 115 L 285 116 L 284 116 L 283 117 L 279 117 L 278 118 L 277 118 L 275 120 L 275 121 L 274 122 L 274 124 L 275 125 L 275 126 L 276 127 L 277 127 L 278 128 L 283 128 L 284 127 L 285 127 L 286 126 L 287 127 L 290 127 L 290 115 L 289 114 L 289 113 L 288 112 L 288 111 L 287 111 L 286 110 Z M 286 118 L 287 119 L 287 121 L 286 122 L 286 123 L 283 126 L 280 126 L 278 124 L 278 121 L 279 120 L 280 120 L 281 119 L 283 119 L 284 118 Z" />
    <path d="M 251 110 L 249 110 L 248 111 L 248 127 L 249 128 L 250 128 L 251 127 Z" />
    <path d="M 230 110 L 228 110 L 227 111 L 227 127 L 228 128 L 229 128 L 231 126 L 231 111 Z" />
    <path d="M 201 110 L 200 111 L 199 111 L 196 114 L 196 115 L 195 116 L 195 122 L 196 123 L 196 124 L 199 127 L 201 127 L 202 128 L 207 128 L 208 127 L 209 127 L 210 126 L 211 126 L 212 125 L 212 124 L 213 123 L 213 121 L 214 120 L 214 119 L 213 118 L 213 115 L 212 114 L 212 113 L 210 111 L 209 111 L 208 110 Z M 203 112 L 206 112 L 210 116 L 210 122 L 207 125 L 206 125 L 205 126 L 203 126 L 199 122 L 199 116 L 200 115 L 200 114 L 201 113 L 202 113 Z" />
    <path d="M 236 106 L 236 109 L 234 111 L 234 112 L 235 112 L 236 113 L 236 125 L 239 128 L 243 128 L 244 127 L 244 126 L 241 126 L 240 125 L 240 123 L 239 122 L 239 114 L 241 112 L 244 112 L 244 111 L 243 110 L 240 110 L 239 109 L 239 106 Z" />
    <path d="M 250 101 L 249 102 L 248 102 L 248 105 L 249 106 L 250 106 L 252 104 L 252 103 Z" />
    <path d="M 229 101 L 228 102 L 227 102 L 227 105 L 228 105 L 229 106 L 231 104 L 231 103 Z" />
    <path d="M 188 99 L 176 99 L 176 127 L 177 128 L 178 128 L 179 127 L 179 118 L 181 116 L 189 116 L 190 115 L 191 115 L 192 114 L 192 113 L 194 111 L 194 104 L 192 102 L 192 101 L 191 101 L 190 100 L 189 100 Z M 179 104 L 181 102 L 187 102 L 190 105 L 190 111 L 189 112 L 188 112 L 187 113 L 186 113 L 185 114 L 181 114 L 179 112 Z" />
    <path d="M 258 96 L 257 97 L 257 127 L 258 128 L 259 128 L 260 127 L 260 121 L 261 120 L 262 120 L 269 127 L 271 127 L 272 128 L 273 127 L 271 125 L 271 124 L 265 118 L 265 117 L 271 111 L 271 110 L 268 110 L 267 111 L 266 111 L 261 116 L 260 115 L 260 97 L 259 96 Z" />
    <path d="M 219 96 L 218 97 L 218 125 L 220 127 L 221 127 L 222 128 L 224 128 L 224 125 L 223 125 L 221 123 L 221 97 L 220 96 Z" />
    <path d="M 151 96 L 150 97 L 148 97 L 146 99 L 145 99 L 142 102 L 142 103 L 140 105 L 140 107 L 139 108 L 139 118 L 140 119 L 140 120 L 141 121 L 141 122 L 145 126 L 146 126 L 148 128 L 150 128 L 151 129 L 159 129 L 160 128 L 162 128 L 163 127 L 164 127 L 166 125 L 167 125 L 167 124 L 170 121 L 170 120 L 171 119 L 171 116 L 172 115 L 172 110 L 171 109 L 171 106 L 170 105 L 170 104 L 164 98 L 163 98 L 162 97 L 160 97 L 159 96 Z M 154 104 L 156 104 L 157 105 L 159 105 L 162 108 L 162 109 L 163 110 L 163 115 L 162 116 L 162 117 L 159 120 L 157 120 L 156 121 L 154 121 L 153 120 L 152 120 L 148 116 L 148 115 L 147 114 L 147 111 L 148 110 L 148 109 L 152 105 L 153 105 Z" />
    <path d="M 106 96 L 106 129 L 115 129 L 115 121 L 116 120 L 120 120 L 121 121 L 121 122 L 122 123 L 122 124 L 124 126 L 124 127 L 126 129 L 135 129 L 135 128 L 134 127 L 134 126 L 133 125 L 133 124 L 131 122 L 131 121 L 130 120 L 130 119 L 129 118 L 129 117 L 130 116 L 130 115 L 131 114 L 131 113 L 132 112 L 132 104 L 131 103 L 131 102 L 129 100 L 129 99 L 128 99 L 126 97 L 125 97 L 124 96 Z M 115 104 L 116 103 L 122 103 L 125 106 L 125 110 L 122 113 L 116 113 L 115 112 Z" />
    <path d="M 73 96 L 73 120 L 74 121 L 74 122 L 75 123 L 75 124 L 78 127 L 79 127 L 80 128 L 81 128 L 82 129 L 90 129 L 91 128 L 92 128 L 93 127 L 94 127 L 97 124 L 97 123 L 98 122 L 98 121 L 99 120 L 99 96 L 91 96 L 90 97 L 90 118 L 88 120 L 84 120 L 82 118 L 82 97 L 81 96 Z" />
    <path d="M 50 96 L 50 97 L 52 99 L 51 100 L 51 101 L 50 102 L 47 102 L 46 101 L 46 100 L 46 129 L 66 129 L 66 124 L 65 125 L 64 125 L 63 124 L 63 123 L 62 122 L 61 122 L 60 123 L 59 123 L 58 122 L 54 122 L 53 123 L 52 123 L 50 125 L 49 125 L 47 123 L 47 121 L 49 119 L 50 120 L 52 120 L 52 117 L 53 116 L 55 116 L 56 115 L 57 115 L 58 114 L 64 114 L 64 113 L 65 112 L 65 110 L 64 109 L 63 109 L 63 111 L 61 113 L 60 112 L 60 111 L 59 111 L 58 110 L 58 109 L 56 109 L 54 107 L 54 104 L 55 103 L 64 103 L 65 102 L 66 102 L 66 96 Z M 53 114 L 54 113 L 55 114 L 54 115 Z" />
    <path d="M 48 96 L 46 96 L 46 98 L 47 98 L 48 97 Z" />
  </g>
</svg>