<svg xmlns="http://www.w3.org/2000/svg" viewBox="0 0 290.64 71.21" width="100%" height="100%" fill-rule="evenodd" clip-rule="evenodd">
  <!-- Mathematically Perfect Stars Circle (EU Spec) -->
  <g fill="#FFCC00">
    <polygon points="26.13,2.00 26.84,4.04 29.00,4.09 27.28,5.39 27.90,7.46 26.13,6.23 24.35,7.46 24.98,5.39 23.25,4.09 25.42,4.04" />
    <polygon points="36.68,4.83 37.39,6.87 39.55,6.92 37.83,8.22 38.46,10.29 36.68,9.06 34.91,10.29 35.53,8.22 33.81,6.92 35.97,6.87" />
    <polygon points="44.41,12.55 45.12,14.60 47.28,14.64 45.56,15.95 46.18,18.02 44.41,16.78 42.63,18.02 43.26,15.95 41.53,14.64 43.70,14.60" />
    <polygon points="47.23,23.11 47.94,25.15 50.11,25.19 48.38,26.50 49.01,28.57 47.23,27.34 45.46,28.57 46.09,26.50 44.36,25.19 46.52,25.15" />
    <polygon points="44.41,33.66 45.12,35.70 47.28,35.75 45.56,37.05 46.18,39.12 44.41,37.89 42.63,39.12 43.26,37.05 41.53,35.75 43.70,35.70" />
    <polygon points="36.68,41.39 37.39,43.43 39.55,43.47 37.83,44.78 38.46,46.85 36.68,45.62 34.91,46.85 35.53,44.78 33.81,43.47 35.97,43.43" />
    <polygon points="26.13,44.21 26.84,46.26 29.00,46.30 27.28,47.61 27.90,49.68 26.13,48.44 24.35,49.68 24.98,47.61 23.25,46.30 25.42,46.26" />
    <polygon points="15.57,41.39 16.28,43.43 18.45,43.47 16.72,44.78 17.35,46.85 15.57,45.62 13.80,46.85 14.43,44.78 12.70,43.47 14.86,43.43" />
    <polygon points="7.85,33.66 8.56,35.70 10.72,35.75 9.00,37.05 9.62,39.12 7.85,37.89 6.07,39.12 6.70,37.05 4.98,35.75 7.14,35.70" />
    <polygon points="5.02,23.11 5.73,25.15 7.89,25.19 6.17,26.50 6.80,28.57 5.02,27.34 3.25,28.57 3.87,26.50 2.15,25.19 4.31,25.15" />
    <polygon points="7.85,12.55 8.56,14.60 10.72,14.64 9.00,15.95 9.62,18.02 7.85,16.78 6.07,18.02 6.70,15.95 4.98,14.64 7.14,14.60" />
    <polygon points="15.57,4.83 16.28,6.87 18.45,6.92 16.72,8.22 17.35,10.29 15.57,9.06 13.80,10.29 14.43,8.22 12.70,6.92 14.86,6.87" />
  </g>
  <!-- Smooth HD Text -->
  <g fill="#185896">
    <path d="M 273.01 47.21 L 272.64 47.59 L 272.64 47.71 L 271.64 48.59 L 271.64 50.71 L 272.01 51.09 L 274.14 51.09 L 275.01 50.09 L 280.14 50.09 L 280.64 50.59 L 280.64 50.71 L 281.64 51.59 L 281.64 52.71 L 281.14 53.21 L 280.14 53.21 L 280.01 53.34 L 279.89 53.34 L 279.64 53.59 L 279.64 53.71 L 279.14 54.21 L 275.01 54.21 L 274.26 55.09 L 274.14 55.09 L 274.01 55.21 L 273.14 55.21 L 273.01 55.34 L 272.89 55.34 L 272.64 55.59 L 272.64 55.71 L 272.14 56.21 L 272.01 56.21 L 271.14 57.21 L 271.01 57.21 L 270.76 57.46 L 270.76 57.59 L 270.64 57.71 L 270.64 58.59 L 270.51 58.71 L 270.51 58.84 L 269.64 59.59 L 269.64 61.71 L 270.51 62.46 L 270.51 62.59 L 270.64 62.71 L 270.64 63.59 L 270.76 63.71 L 270.76 63.84 L 271.01 64.09 L 271.14 64.09 L 271.64 64.59 L 271.64 64.71 L 271.89 64.96 L 272.01 64.96 L 272.14 65.09 L 273.01 65.09 L 273.14 65.21 L 273.26 65.21 L 274.01 66.09 L 279.14 66.09 L 279.89 65.21 L 280.01 65.21 L 280.14 65.09 L 281.01 65.09 L 281.14 64.96 L 281.26 64.96 L 281.26 64.84 L 281.76 64.21 L 282.39 64.21 L 282.64 64.46 L 282.64 64.59 L 282.89 64.84 L 282.89 64.96 L 283.01 64.96 L 283.14 65.09 L 286.14 65.09 L 286.51 64.71 L 286.51 52.59 L 285.64 51.84 L 285.64 51.71 L 285.51 51.59 L 285.51 50.71 L 285.39 50.59 L 285.39 50.46 L 285.14 50.21 L 285.01 50.21 L 284.64 49.84 L 284.64 49.71 L 284.51 49.59 L 284.51 48.59 L 284.14 48.21 L 283.14 48.21 L 283.01 48.09 L 282.89 48.09 L 282.14 47.21 Z M 282.14 56.09 L 282.64 56.59 L 282.64 58.71 L 282.14 59.21 L 282.01 59.21 L 281.76 59.46 L 281.76 59.59 L 281.64 59.71 L 281.64 60.59 L 281.51 60.71 L 281.51 60.84 L 281.14 61.21 L 281.01 61.21 L 280.64 61.59 L 280.64 61.71 L 280.14 62.21 L 280.01 62.21 L 279.64 62.59 L 279.64 62.71 L 279.14 63.21 L 276.01 63.21 L 275.51 62.71 L 275.51 62.59 L 275.14 62.21 L 275.01 62.21 L 274.51 61.71 L 274.51 58.59 L 275.01 58.09 L 276.01 58.09 L 276.14 57.96 L 276.26 57.96 L 276.51 57.71 L 276.51 57.59 L 277.01 57.09 L 279.14 57.09 L 279.51 56.71 L 279.51 56.59 L 280.01 56.09 Z" />
    <path d="M 247.14 47.21 L 245.01 47.21 L 244.64 47.59 L 244.64 47.71 L 244.14 48.21 L 244.01 48.21 L 243.64 48.59 L 243.64 64.71 L 244.01 65.09 L 244.14 65.09 L 244.64 65.59 L 244.64 65.71 L 245.01 66.09 L 245.39 66.09 L 245.51 66.21 L 245.64 66.21 L 245.76 66.09 L 246.14 66.09 L 246.51 65.71 L 246.51 65.59 L 247.01 65.09 L 247.14 65.09 L 247.51 64.71 L 247.51 47.59 Z" />
    <path d="M 226.14 47.21 L 224.01 47.21 L 223.64 47.59 L 223.64 47.71 L 223.14 48.21 L 223.01 48.21 L 222.64 48.59 L 222.64 64.71 L 223.01 65.09 L 223.14 65.09 L 223.64 65.59 L 223.64 65.71 L 224.01 66.09 L 224.39 66.09 L 224.51 66.21 L 224.64 66.21 L 224.76 66.09 L 225.14 66.09 L 225.51 65.71 L 225.51 65.59 L 226.01 65.09 L 226.14 65.09 L 226.51 64.71 L 226.51 64.59 L 227.01 64.09 L 227.14 64.09 L 227.51 63.71 L 227.51 48.59 L 227.14 48.21 L 227.01 48.21 L 226.51 47.71 L 226.51 47.59 Z" />
    <path d="M 197.01 47.21 L 196.64 47.59 L 196.64 47.71 L 196.26 48.09 L 196.14 48.09 L 196.01 48.21 L 195.14 48.21 L 195.01 48.34 L 194.89 48.34 L 194.64 48.59 L 194.64 48.71 L 194.14 49.21 L 194.01 49.21 L 193.64 49.59 L 193.64 49.71 L 193.14 50.21 L 193.01 50.21 L 192.64 50.59 L 192.64 50.71 L 192.14 51.21 L 192.01 51.21 L 191.76 51.46 L 191.76 51.59 L 191.64 51.71 L 191.64 52.59 L 191.51 52.71 L 191.51 52.84 L 191.14 53.21 L 191.01 53.21 L 190.64 53.59 L 190.64 59.71 L 191.01 60.09 L 191.14 60.09 L 191.51 60.46 L 191.51 60.59 L 191.64 60.71 L 191.64 61.59 L 191.76 61.71 L 191.76 61.84 L 192.01 62.09 L 192.14 62.09 L 192.64 62.59 L 192.64 62.71 L 193.01 63.09 L 193.14 63.09 L 193.64 63.59 L 193.64 63.71 L 194.01 64.09 L 194.14 64.09 L 194.64 64.59 L 194.64 64.71 L 195.01 65.09 L 197.14 65.09 L 197.64 65.59 L 197.64 65.71 L 198.01 66.09 L 203.14 66.09 L 203.51 65.71 L 203.51 65.59 L 203.89 65.21 L 204.01 65.21 L 204.14 65.09 L 205.01 65.09 L 205.14 64.96 L 205.26 64.96 L 205.51 64.71 L 205.51 64.59 L 205.89 64.21 L 206.01 64.21 L 206.14 64.09 L 207.01 64.09 L 207.14 63.96 L 207.26 63.96 L 207.51 63.71 L 207.51 63.59 L 208.01 63.09 L 208.14 63.09 L 208.39 62.84 L 208.39 62.71 L 208.51 62.59 L 208.51 61.71 L 208.64 61.59 L 208.64 61.46 L 209.01 61.09 L 209.14 61.09 L 209.51 60.71 L 209.51 58.59 L 210.01 58.09 L 210.14 58.09 L 210.51 57.71 L 210.51 57.34 L 210.64 57.21 L 210.64 57.09 L 210.51 56.96 L 210.51 56.59 L 210.14 56.21 L 210.01 56.21 L 209.51 55.71 L 209.51 52.59 L 209.14 52.21 L 209.01 52.21 L 208.64 51.84 L 208.64 51.71 L 208.51 51.59 L 208.51 50.71 L 208.39 50.59 L 208.39 50.46 L 208.14 50.21 L 208.01 50.21 L 207.51 49.71 L 207.51 49.59 L 207.14 49.21 L 207.01 49.21 L 206.51 48.71 L 206.51 48.59 L 206.26 48.34 L 206.14 48.34 L 206.01 48.21 L 205.14 48.21 L 205.01 48.09 L 204.89 48.09 L 204.51 47.71 L 204.51 47.59 L 204.14 47.21 Z M 199.01 50.09 L 202.14 50.09 L 202.64 50.59 L 202.64 50.71 L 203.01 51.09 L 203.14 51.09 L 203.64 51.59 L 203.64 51.71 L 204.01 52.09 L 204.14 52.09 L 204.64 52.59 L 204.64 52.71 L 205.01 53.09 L 205.14 53.09 L 205.64 53.59 L 205.64 59.71 L 205.14 60.21 L 205.01 60.21 L 204.64 60.59 L 204.64 60.71 L 204.14 61.21 L 204.01 61.21 L 203.64 61.59 L 203.64 61.71 L 203.26 62.09 L 203.14 62.09 L 203.01 62.21 L 202.14 62.21 L 202.01 62.34 L 201.89 62.34 L 201.64 62.59 L 201.64 62.71 L 201.14 63.21 L 199.01 63.21 L 198.51 62.71 L 198.51 62.59 L 198.14 62.21 L 198.01 62.21 L 197.51 61.71 L 197.51 61.59 L 197.14 61.21 L 197.01 61.21 L 196.51 60.71 L 196.51 60.59 L 196.14 60.21 L 196.01 60.21 L 195.51 59.71 L 195.51 53.59 L 196.01 53.09 L 196.14 53.09 L 196.39 52.84 L 196.39 52.71 L 196.51 52.59 L 196.51 51.59 L 197.01 51.09 L 198.01 51.09 L 198.14 50.96 L 198.26 50.96 L 198.51 50.71 L 198.51 50.59 Z" />
    <path d="M 232.01 43.21 L 231.64 43.59 L 231.64 46.71 L 231.14 47.21 L 231.01 47.21 L 230.64 47.59 L 230.64 47.71 L 230.14 48.21 L 230.01 48.21 L 229.64 48.59 L 229.64 49.71 L 230.01 50.09 L 231.14 50.09 L 231.64 50.59 L 231.64 62.71 L 232.01 63.09 L 232.14 63.09 L 232.64 63.59 L 232.64 63.71 L 233.01 64.09 L 233.14 64.09 L 233.64 64.59 L 233.64 64.71 L 234.01 65.09 L 234.14 65.09 L 234.64 65.59 L 234.64 65.71 L 235.01 66.09 L 239.14 66.09 L 239.51 65.71 L 239.51 65.59 L 240.01 65.09 L 240.14 65.09 L 240.51 64.71 L 240.51 63.59 L 240.14 63.21 L 237.01 63.21 L 236.51 62.71 L 236.51 60.59 L 236.14 60.21 L 236.01 60.21 L 235.51 59.71 L 235.51 51.59 L 236.01 51.09 L 236.14 51.09 L 236.51 50.71 L 236.51 50.59 L 237.01 50.09 L 240.14 50.09 L 240.51 49.71 L 240.51 48.59 L 240.14 48.21 L 240.01 48.21 L 239.51 47.71 L 239.51 47.59 L 239.14 47.21 L 236.01 47.21 L 235.51 46.71 L 235.51 43.59 L 235.14 43.21 Z" />
    <path d="M 246.39 38.34 L 245.76 38.34 L 245.64 38.46 L 245.64 38.59 L 245.39 38.84 L 245.39 38.96 L 245.26 39.09 L 245.14 39.09 L 245.01 39.21 L 244.01 39.21 L 243.64 39.59 L 243.64 42.71 L 244.01 43.09 L 244.14 43.09 L 244.64 43.59 L 244.64 43.71 L 245.01 44.09 L 245.39 44.09 L 245.51 44.21 L 245.64 44.21 L 245.76 44.09 L 246.14 44.09 L 246.51 43.71 L 246.51 43.59 L 247.01 43.09 L 247.14 43.09 L 247.51 42.71 L 247.51 42.59 L 248.01 42.09 L 248.14 42.09 L 248.51 41.71 L 248.51 41.34 L 248.64 41.21 L 248.64 41.09 L 248.51 40.96 L 248.51 40.59 L 248.14 40.21 L 248.01 40.21 L 247.51 39.71 L 247.51 39.59 L 247.01 39.09 L 246.89 39.09 L 246.76 38.96 L 246.76 38.84 L 246.39 38.46 Z" />
    <path d="M 224.76 38.34 L 224.64 38.46 L 224.64 38.59 L 224.39 38.84 L 224.39 38.96 L 224.26 39.09 L 224.14 39.09 L 224.01 39.21 L 223.01 39.21 L 222.64 39.59 L 222.64 42.71 L 223.01 43.09 L 224.01 43.09 L 224.14 43.21 L 224.26 43.21 L 224.39 43.34 L 224.39 43.46 L 224.64 43.71 L 224.64 43.84 L 224.76 43.96 L 225.39 43.96 L 225.39 43.84 L 225.76 43.46 L 225.76 43.34 L 225.89 43.21 L 226.01 43.21 L 226.51 42.71 L 226.51 42.59 L 227.01 42.09 L 227.14 42.09 L 227.51 41.71 L 227.51 41.34 L 227.64 41.21 L 227.64 41.09 L 227.51 40.96 L 227.51 40.59 L 227.14 40.21 L 227.01 40.21 L 226.51 39.71 L 226.51 39.59 L 226.01 39.09 L 225.89 39.09 L 225.76 38.96 L 225.76 38.84 L 225.39 38.46 L 225.39 38.34 Z" />
    <path d="M 184.14 36.21 L 172.01 36.21 L 171.64 36.59 L 171.64 64.71 L 172.01 65.09 L 172.14 65.09 L 173.01 66.09 L 173.39 66.09 L 173.51 66.21 L 173.64 66.21 L 173.76 66.09 L 174.14 66.09 L 174.51 65.71 L 174.51 65.59 L 175.51 64.71 L 175.51 55.59 L 176.01 55.09 L 176.14 55.09 L 177.01 54.09 L 185.14 54.09 L 185.89 53.21 L 186.01 53.21 L 186.14 53.09 L 187.01 53.09 L 187.14 52.96 L 187.26 52.96 L 187.51 52.71 L 187.51 52.59 L 188.39 51.84 L 188.39 51.71 L 188.51 51.59 L 188.51 50.71 L 188.64 50.59 L 188.64 50.46 L 189.01 50.09 L 189.14 50.09 L 189.51 49.71 L 189.51 49.59 L 190.51 48.71 L 190.51 41.59 L 190.14 41.21 L 190.01 41.21 L 189.51 40.71 L 189.51 40.59 L 188.64 39.84 L 188.64 39.71 L 188.51 39.59 L 188.51 38.59 L 188.14 38.21 L 187.14 38.21 L 187.01 38.09 L 186.89 38.09 L 186.26 37.34 L 186.14 37.34 L 186.01 37.21 L 185.14 37.21 L 185.01 37.09 L 184.89 37.09 Z M 175.51 41.59 L 176.01 41.09 L 176.14 41.09 L 176.51 40.71 L 176.51 40.59 L 177.01 40.09 L 183.14 40.09 L 183.64 40.59 L 183.64 40.71 L 184.01 41.09 L 184.14 41.09 L 184.64 41.59 L 184.64 41.71 L 185.01 42.09 L 185.14 42.09 L 185.64 42.59 L 185.64 48.71 L 185.14 49.21 L 184.14 49.21 L 184.01 49.34 L 183.89 49.34 L 183.64 49.59 L 183.64 49.71 L 183.26 50.09 L 183.14 50.09 L 183.01 50.21 L 182.14 50.21 L 182.01 50.34 L 181.89 50.34 L 181.64 50.59 L 181.64 50.71 L 181.14 51.21 L 177.01 51.21 L 176.51 50.71 L 176.51 50.59 L 176.14 50.21 L 176.01 50.21 L 175.51 49.71 Z" />
    <path d="M 147.01 33.21 L 146.14 34.21 L 144.01 34.21 L 142.26 36.09 L 142.01 36.21 L 141.14 36.21 L 140.89 36.34 L 140.64 36.71 L 140.14 37.21 L 140.01 37.21 L 138.14 39.21 L 137.76 39.46 L 137.64 39.71 L 137.64 40.59 L 137.51 40.84 L 135.64 42.59 L 135.64 44.71 L 134.64 45.59 L 134.64 55.71 L 135.51 56.46 L 135.64 56.71 L 135.64 57.59 L 135.76 57.84 L 136.51 58.46 L 136.64 58.71 L 136.64 59.59 L 136.76 59.84 L 137.14 60.09 L 137.64 60.59 L 137.64 60.71 L 138.01 61.09 L 138.14 61.09 L 138.64 61.59 L 138.64 61.71 L 140.64 63.59 L 140.89 63.96 L 141.14 64.09 L 142.01 64.09 L 142.26 64.21 L 144.01 66.09 L 146.14 66.09 L 147.01 67.09 L 155.14 67.09 L 156.01 66.09 L 158.14 66.09 L 158.89 65.21 L 159.14 65.09 L 160.01 65.09 L 160.26 64.96 L 160.51 64.59 L 161.01 64.09 L 161.14 64.09 L 161.89 63.21 L 162.14 63.09 L 163.14 63.09 L 163.51 62.71 L 163.51 61.71 L 163.64 61.46 L 164.01 61.09 L 164.14 61.09 L 166.01 59.09 L 166.39 58.84 L 166.51 58.59 L 166.51 57.71 L 166.64 57.46 L 167.51 56.71 L 167.51 53.59 L 168.51 52.71 L 168.51 47.59 L 167.51 46.71 L 167.51 43.59 L 166.64 42.84 L 166.51 42.59 L 166.51 41.71 L 166.39 41.46 L 166.01 41.21 L 165.51 40.71 L 165.51 40.59 L 165.14 40.21 L 165.01 40.21 L 164.51 39.71 L 164.51 39.59 L 164.14 39.21 L 164.01 39.21 L 163.51 38.71 L 163.51 38.59 L 163.14 38.21 L 163.01 38.21 L 162.51 37.71 L 162.51 37.59 L 160.51 35.71 L 160.26 35.34 L 160.01 35.21 L 159.14 35.21 L 158.89 35.09 L 158.14 34.21 L 156.01 34.21 L 155.14 33.21 Z M 150.01 42.09 L 152.14 42.09 L 152.64 42.59 L 152.64 42.71 L 153.01 43.09 L 155.14 43.09 L 155.64 43.59 L 155.64 43.71 L 156.01 44.09 L 156.14 44.09 L 156.64 44.59 L 156.64 44.71 L 157.01 45.09 L 157.14 45.09 L 157.51 45.46 L 157.51 45.59 L 157.64 45.71 L 157.64 46.59 L 157.76 46.71 L 157.76 46.84 L 158.01 47.09 L 158.14 47.09 L 158.64 47.59 L 158.64 52.71 L 158.14 53.21 L 158.01 53.21 L 157.76 53.46 L 157.76 53.59 L 157.64 53.71 L 157.64 54.59 L 157.51 54.71 L 157.51 54.84 L 157.14 55.21 L 157.01 55.21 L 156.64 55.59 L 156.64 55.71 L 156.14 56.21 L 156.01 56.21 L 155.64 56.59 L 155.64 56.71 L 155.14 57.21 L 153.01 57.21 L 152.64 57.59 L 152.64 57.71 L 152.14 58.21 L 150.01 58.21 L 149.51 57.71 L 149.51 57.59 L 149.26 57.34 L 149.14 57.34 L 149.01 57.21 L 148.14 57.21 L 148.01 57.09 L 147.89 57.09 L 147.51 56.71 L 147.51 56.59 L 147.14 56.21 L 147.01 56.21 L 146.51 55.71 L 146.51 55.59 L 146.14 55.21 L 146.01 55.21 L 145.51 54.71 L 145.51 54.59 L 145.14 54.21 L 145.01 54.21 L 144.64 53.84 L 144.64 53.71 L 144.51 53.59 L 144.51 52.71 L 144.39 52.59 L 144.39 52.46 L 144.14 52.21 L 144.01 52.21 L 143.51 51.71 L 143.51 48.59 L 144.01 48.09 L 144.14 48.09 L 144.39 47.84 L 144.39 47.71 L 144.51 47.59 L 144.51 46.71 L 144.64 46.59 L 144.64 46.46 L 145.01 46.09 L 145.14 46.09 L 145.51 45.71 L 145.51 45.59 L 146.01 45.09 L 146.14 45.09 L 146.51 44.71 L 146.51 44.59 L 147.01 44.09 L 147.14 44.09 L 147.51 43.71 L 147.51 43.59 L 147.89 43.21 L 148.01 43.21 L 148.14 43.09 L 149.01 43.09 L 149.14 42.96 L 149.26 42.96 L 149.51 42.71 L 149.51 42.59 Z" />
    <path d="M 102.01 33.21 L 101.64 33.59 L 101.64 66.71 L 102.01 67.09 L 111.14 67.09 L 111.51 66.71 L 111.51 58.59 L 112.01 58.09 L 116.14 58.09 L 116.64 58.59 L 116.64 59.59 L 116.76 59.84 L 117.14 60.09 L 117.64 60.71 L 117.64 61.59 L 117.76 61.84 L 119.51 63.46 L 119.76 64.84 L 120.14 65.09 L 122.01 67.09 L 131.14 67.09 L 131.51 66.71 L 131.51 65.59 L 130.64 64.84 L 130.51 64.59 L 130.51 63.71 L 130.39 63.46 L 129.64 62.84 L 129.39 61.46 L 127.64 59.84 L 127.51 59.59 L 127.51 58.71 L 127.39 58.46 L 126.64 57.84 L 126.51 57.59 L 126.51 56.71 L 126.39 56.46 L 125.51 55.71 L 125.51 55.34 L 125.39 55.21 L 125.51 54.59 L 126.14 54.09 L 126.51 53.59 L 126.51 52.71 L 126.64 52.46 L 127.14 52.09 L 127.51 51.59 L 127.51 50.71 L 127.64 50.46 L 128.51 49.71 L 128.51 41.59 L 127.64 40.84 L 127.39 39.46 L 125.64 37.84 L 125.51 37.59 L 125.51 36.59 L 125.14 36.21 L 124.14 36.21 L 123.89 36.09 L 122.26 34.34 L 120.89 34.09 L 120.14 33.21 Z M 112.01 41.09 L 118.14 41.09 L 118.64 41.59 L 118.64 41.71 L 119.01 42.09 L 119.14 42.09 L 119.64 42.59 L 119.64 42.71 L 120.01 43.09 L 120.14 43.09 L 120.64 43.59 L 120.64 47.71 L 120.14 48.21 L 120.01 48.21 L 119.64 48.59 L 119.64 48.71 L 119.14 49.21 L 119.01 49.21 L 118.64 49.59 L 118.64 49.71 L 118.14 50.21 L 112.01 50.21 L 111.51 49.71 L 111.51 41.59 Z" />
    <path d="M 69.01 33.21 L 68.64 33.59 L 68.64 57.71 L 69.51 58.46 L 69.64 58.71 L 69.64 59.59 L 70.51 60.46 L 70.76 61.84 L 73.89 64.96 L 74.14 65.09 L 75.01 65.09 L 75.89 65.96 L 77.26 66.21 L 78.01 67.09 L 86.14 67.09 L 86.89 66.21 L 87.14 66.09 L 88.01 66.09 L 88.89 65.21 L 90.26 64.96 L 93.39 61.84 L 93.51 61.59 L 93.51 60.71 L 94.39 59.84 L 94.64 58.46 L 95.51 57.71 L 95.51 33.59 L 95.14 33.21 L 87.01 33.21 L 85.64 34.59 L 85.64 55.71 L 84.14 57.21 L 80.01 57.21 L 78.51 55.71 L 78.51 34.59 L 77.14 33.21 Z" />
    <path d="M 46.14 33.21 L 45.76 33.46 L 45.64 34.46 L 45.89 34.96 L 47.51 36.34 L 47.51 36.96 L 46.64 37.71 L 46.64 38.71 L 46.14 39.21 L 43.14 39.21 L 42.64 38.71 L 42.51 38.34 L 42.64 37.96 L 42.26 37.34 L 41.89 37.34 L 41.51 37.84 L 41.64 38.84 L 41.64 66.71 L 42.01 67.09 L 62.14 67.09 L 62.51 66.71 L 62.51 62.21 L 62.64 62.09 L 62.51 61.46 L 62.14 61.21 L 61.76 61.34 L 61.39 61.96 L 61.01 62.21 L 60.01 62.21 L 59.51 61.71 L 59.39 60.46 L 58.14 59.21 L 57.64 59.09 L 57.01 59.21 L 56.14 60.21 L 55.64 60.34 L 55.01 60.21 L 54.14 59.21 L 50.01 59.21 L 49.26 60.09 L 47.89 60.34 L 46.14 62.21 L 45.51 62.34 L 45.01 62.21 L 43.51 60.71 L 43.51 58.59 L 44.26 57.96 L 44.76 57.21 L 45.39 57.21 L 46.14 58.09 L 48.14 58.09 L 48.51 57.71 L 48.51 54.59 L 49.01 54.09 L 51.14 54.09 L 51.89 53.21 L 53.26 52.96 L 54.01 52.09 L 60.14 52.09 L 60.51 51.71 L 60.51 50.71 L 61.51 49.71 L 61.51 47.59 L 60.14 46.21 L 59.01 46.21 L 58.64 46.59 L 58.64 48.71 L 57.26 50.09 L 56.76 50.09 L 56.51 49.84 L 56.51 48.59 L 56.14 48.21 L 55.01 48.21 L 54.51 47.71 L 54.51 46.59 L 54.14 46.21 L 52.01 46.21 L 50.51 44.71 L 50.51 41.59 L 51.01 41.09 L 60.14 41.09 L 60.89 40.21 L 62.14 40.09 L 62.51 39.71 L 62.51 33.59 L 62.14 33.21 Z M 49.89 51.09 L 50.26 51.09 L 50.64 51.46 L 50.64 51.84 L 50.26 52.21 L 49.89 52.21 L 49.51 51.84 L 49.51 51.46 Z" />
    <path d="M 42.01 33.21 L 41.64 33.59 L 41.64 35.59 L 41.76 35.71 L 41.76 35.84 L 41.89 35.96 L 42.01 35.96 L 42.14 36.09 L 43.14 36.09 L 43.51 35.71 L 43.51 35.59 L 44.01 35.09 L 44.14 35.09 L 44.26 34.96 L 44.26 34.84 L 44.39 34.71 L 44.39 34.59 L 44.51 34.46 L 44.51 33.84 L 44.39 33.71 L 44.39 33.46 L 44.26 33.34 L 44.14 33.34 L 44.01 33.21 Z" />
    <path d="M 254.01 33.21 L 253.64 33.59 L 253.64 33.71 L 252.64 34.59 L 252.64 64.71 L 253.01 65.09 L 253.14 65.09 L 254.01 66.09 L 254.39 66.09 L 254.51 66.21 L 254.76 66.09 L 255.14 66.09 L 255.51 65.71 L 255.51 65.59 L 256.51 64.71 L 256.51 58.59 L 257.01 58.09 L 258.14 58.09 L 258.64 58.59 L 258.64 58.71 L 259.01 59.09 L 259.14 59.09 L 259.64 59.59 L 259.64 59.71 L 260.01 60.09 L 260.14 60.09 L 260.64 60.59 L 260.64 60.71 L 261.01 61.09 L 261.14 61.09 L 261.64 61.59 L 261.64 61.71 L 262.01 62.09 L 262.14 62.09 L 262.64 62.59 L 262.64 62.71 L 264.64 64.59 L 264.64 64.71 L 265.01 65.09 L 267.01 65.09 L 267.51 65.46 L 267.76 65.96 L 268.39 65.96 L 268.39 65.84 L 269.39 64.96 L 269.39 64.46 L 267.64 62.84 L 267.51 62.59 L 267.51 61.71 L 267.39 61.46 L 267.01 61.21 L 266.51 60.71 L 266.51 60.59 L 266.14 60.21 L 266.01 60.21 L 265.51 59.71 L 265.51 59.59 L 265.14 59.21 L 265.01 59.21 L 264.51 58.71 L 264.51 58.59 L 264.14 58.21 L 264.01 58.21 L 263.51 57.71 L 263.51 57.59 L 261.51 55.71 L 261.51 55.34 L 261.39 55.21 L 261.51 54.96 L 261.51 54.59 L 262.01 54.09 L 262.14 54.09 L 262.51 53.71 L 262.51 53.59 L 263.01 53.09 L 263.14 53.09 L 263.51 52.71 L 263.51 52.59 L 264.01 52.09 L 264.14 52.09 L 264.51 51.71 L 264.51 51.59 L 265.01 51.09 L 265.14 51.09 L 267.01 49.09 L 267.14 49.09 L 267.51 48.71 L 267.51 47.59 L 267.14 47.21 L 264.01 47.21 L 263.26 48.09 L 263.01 48.21 L 262.14 48.21 L 261.89 48.34 L 261.64 48.71 L 261.14 49.21 L 261.01 49.21 L 260.64 49.59 L 260.64 49.71 L 260.14 50.21 L 260.01 50.21 L 259.64 50.59 L 259.64 50.71 L 259.14 51.21 L 259.01 51.21 L 257.26 53.09 L 256.76 53.09 L 256.51 52.84 L 256.51 52.59 L 256.39 52.46 L 256.39 52.21 L 256.51 52.09 L 256.51 34.59 L 256.14 34.21 L 256.01 34.21 L 255.14 33.21 L 254.76 33.21 L 254.64 33.09 L 254.39 33.21 Z" />
    <path d="M 215.51 33.09 L 215.39 33.21 L 215.01 33.21 L 214.64 33.59 L 214.64 33.71 L 214.14 34.21 L 214.01 34.21 L 213.64 34.59 L 213.64 62.71 L 214.01 63.09 L 214.14 63.09 L 214.64 63.59 L 214.64 63.71 L 215.01 64.09 L 215.14 64.09 L 215.64 64.59 L 215.64 64.71 L 215.89 64.96 L 216.01 64.96 L 216.14 65.09 L 217.01 65.09 L 217.14 65.21 L 217.26 65.21 L 218.01 66.09 L 220.14 66.09 L 220.51 65.71 L 220.51 62.59 L 220.14 62.21 L 219.14 62.21 L 219.01 62.09 L 218.89 62.09 L 218.51 61.71 L 218.51 61.59 L 218.14 61.21 L 218.01 61.21 L 217.51 60.71 L 217.51 34.59 L 217.14 34.21 L 217.01 34.21 L 216.51 33.71 L 216.51 33.59 L 216.14 33.21 L 215.76 33.21 L 215.64 33.09 Z" />
  </g>
</svg>