<svg xmlns="http://www.w3.org/2000/svg" viewBox="0 0 291.64 72.21" width="100%" height="100%" fill-rule="evenodd" clip-rule="evenodd">
  <!-- Mathematically Perfect Stars Circle (EU Spec) -->
  <g fill="#FFCC00">
    <polygon points="26.13,2.00 26.84,4.04 29.00,4.09 27.28,5.39 27.90,7.46 26.13,6.23 24.35,7.46 24.98,5.39 23.25,4.09 25.42,4.04" />
    <polygon points="36.68,4.83 37.39,6.87 39.55,6.92 37.83,8.22 38.46,10.29 36.68,9.06 34.91,10.29 35.53,8.22 33.81,6.92 35.97,6.87" />
    <polygon points="44.41,12.55 45.12,14.60 47.28,14.64 45.56,15.95 46.18,18.02 44.41,16.78 42.63,18.02 43.26,15.95 41.53,14.64 43.70,14.60" />
    <polygon points="47.23,23.11 47.94,25.15 50.11,25.19 48.38,26.50 49.01,28.57 47.23,27.34 45.46,28.57 46.09,26.50 44.36,25.19 46.52,25.15" />
    <polygon points="44.41,33.66 45.12,35.70 47.28,35.75 45.56,37.05 46.18,39.12 44.41,37.89 42.63,39.12 43.26,37.05 41.53,35.75 43.70,35.70" />
    <polygon points="36.68,41.39 37.39,43.43 39.55,43.47 37.83,44.78 38.46,46.85 36.68,45.62 34.91,46.85 35.53,44.78 33.81,43.47 35.97,43.43" />
    <polygon points="26.13,44.21 26.84,46.26 29.00,46.30 27.28,47.61 27.90,49.68 26.13,48.44 24.35,49.68 24.98,47.61 23.25,46.30 25.42,46.26" />
    <polygon points="15.57,41.39 16.28,43.43 18.45,43.47 16.72,44.78 17.35,46.85 15.57,45.62 13.80,46.85 14.43,44.78 12.70,43.47 14.86,43.43" />
    <polygon points="7.85,33.66 8.56,35.70 10.72,35.75 9.00,37.05 9.62,39.12 7.85,37.89 6.07,39.12 6.70,37.05 4.98,35.75 7.14,35.70" />
    <polygon points="5.02,23.11 5.73,25.15 7.89,25.19 6.17,26.50 6.80,28.57 5.02,27.34 3.25,28.57 3.87,26.50 2.15,25.19 4.31,25.15" />
    <polygon points="7.85,12.55 8.56,14.60 10.72,14.64 9.00,15.95 9.62,18.02 7.85,16.78 6.07,18.02 6.70,15.95 4.98,14.64 7.14,14.60" />
    <polygon points="15.57,4.83 16.28,6.87 18.45,6.92 16.72,8.22 17.35,10.29 15.57,9.06 13.80,10.29 14.43,8.22 12.70,6.92 14.86,6.87" />
  </g>
  <!-- Smooth HD Text -->
  <g fill="#185896">
    <path d="M 272.81 47.46 L 271.89 48.38 L 271.64 48.88 L 271.64 50.46 L 272.06 51.04 L 273.89 51.13 L 275.31 50.13 L 279.89 50.13 L 280.39 50.38 L 281.39 51.38 L 281.64 51.79 L 281.64 52.54 L 281.14 53.13 L 280.31 53.21 L 278.89 54.21 L 275.06 54.29 L 274.22 55.04 L 272.81 55.46 L 270.89 57.38 L 270.56 58.63 L 269.64 59.88 L 269.64 61.46 L 270.47 62.54 L 270.81 63.79 L 271.81 64.88 L 273.06 65.21 L 274.31 66.13 L 278.89 66.13 L 279.97 65.29 L 281.06 65.04 L 282.06 64.29 L 283.31 65.13 L 286.14 65.04 L 286.56 64.46 L 286.56 52.88 L 285.72 51.79 L 285.47 50.71 L 284.56 49.46 L 284.39 48.54 L 284.06 48.29 L 282.97 48.04 L 281.89 47.21 L 273.31 47.21 Z M 282.14 56.21 L 282.56 56.63 L 282.56 56.79 L 282.64 56.88 L 282.64 58.46 L 282.56 58.54 L 282.56 58.71 L 282.39 58.88 L 282.39 58.96 L 282.14 59.21 L 282.06 59.21 L 281.81 59.54 L 281.81 59.63 L 281.72 59.71 L 281.72 59.88 L 281.64 59.96 L 281.64 60.38 L 281.56 60.46 L 281.56 60.63 L 281.47 60.71 L 281.39 60.96 L 281.06 61.29 L 280.97 61.29 L 280.64 61.63 L 280.64 61.71 L 280.14 62.21 L 280.06 62.21 L 279.39 62.96 L 279.31 62.96 L 279.14 63.13 L 278.97 63.13 L 278.89 63.21 L 276.31 63.21 L 276.22 63.13 L 276.06 63.13 L 275.89 62.96 L 275.81 62.96 L 275.47 62.63 L 275.47 62.54 L 274.81 61.96 L 274.81 61.88 L 274.64 61.71 L 274.64 61.54 L 274.56 61.46 L 274.56 58.88 L 274.64 58.79 L 274.64 58.63 L 274.97 58.29 L 275.06 58.29 L 275.14 58.21 L 275.31 58.21 L 275.39 58.13 L 275.89 58.13 L 275.97 58.04 L 276.22 57.96 L 276.39 57.79 L 276.47 57.79 L 276.56 57.71 L 276.56 57.63 L 276.81 57.38 L 276.89 57.38 L 277.06 57.21 L 277.22 57.21 L 277.31 57.13 L 278.89 57.13 L 278.97 57.04 L 279.14 57.04 L 279.31 56.88 L 279.39 56.88 L 279.81 56.38 L 279.89 56.38 L 280.06 56.21 L 280.22 56.21 L 280.31 56.13 L 281.89 56.13 L 281.97 56.21 Z" />
    <path d="M 246.89 47.21 L 245.31 47.21 L 245.06 47.29 L 243.89 48.38 L 243.64 48.88 L 243.64 64.46 L 243.89 64.96 L 244.81 65.88 L 245.22 66.13 L 245.97 66.13 L 246.39 65.88 L 247.31 64.96 L 247.56 64.46 L 247.56 47.88 L 247.47 47.63 L 247.14 47.29 Z" />
    <path d="M 225.89 47.21 L 224.31 47.21 L 224.06 47.29 L 222.89 48.38 L 222.64 48.88 L 222.64 64.46 L 222.89 64.96 L 223.81 65.88 L 224.22 66.13 L 224.97 66.13 L 225.39 65.88 L 227.31 63.96 L 227.56 63.46 L 227.56 48.88 L 227.31 48.38 L 226.39 47.46 Z" />
    <path d="M 197.31 47.21 L 196.81 47.46 L 196.22 48.04 L 194.81 48.46 L 191.89 51.38 L 191.56 52.63 L 190.89 53.38 L 190.64 53.88 L 190.64 59.46 L 190.89 59.96 L 191.47 60.54 L 191.89 61.96 L 195.06 65.04 L 196.89 65.13 L 198.31 66.13 L 202.89 66.13 L 203.39 65.88 L 203.97 65.29 L 205.06 65.04 L 205.97 64.29 L 207.39 63.88 L 208.31 62.96 L 208.72 61.54 L 209.47 60.71 L 209.64 58.63 L 210.56 57.54 L 210.56 56.79 L 210.31 56.38 L 209.81 55.96 L 209.56 55.46 L 209.56 52.88 L 209.31 52.38 L 208.72 51.79 L 208.31 50.38 L 206.39 48.46 L 204.97 48.04 L 204.14 47.29 Z M 199.31 50.13 L 201.89 50.13 L 202.39 50.38 L 202.72 50.79 L 205.39 53.38 L 205.64 53.88 L 205.64 59.46 L 205.56 59.71 L 203.39 61.96 L 202.81 62.21 L 202.14 62.29 L 201.72 62.54 L 201.39 62.96 L 200.89 63.21 L 199.31 63.21 L 198.81 62.96 L 198.47 62.54 L 195.81 59.96 L 195.56 59.46 L 195.56 53.88 L 195.64 53.63 L 196.39 52.79 L 196.56 52.46 L 196.56 51.96 L 196.64 51.71 L 196.97 51.29 L 197.39 51.13 L 197.89 51.13 L 198.47 50.79 L 198.81 50.38 Z" />
    <path d="M 232.31 43.21 L 232.06 43.29 L 231.64 43.88 L 231.56 46.71 L 229.89 48.38 L 229.64 48.79 L 229.72 49.71 L 230.06 50.04 L 231.14 50.21 L 231.64 50.88 L 231.64 62.46 L 231.89 62.96 L 235.06 66.04 L 238.89 66.13 L 239.39 65.88 L 240.31 64.96 L 240.56 64.54 L 240.56 63.79 L 240.14 63.29 L 239.89 63.21 L 237.31 63.21 L 236.64 62.71 L 236.56 60.88 L 235.56 59.46 L 235.56 51.88 L 235.81 51.38 L 237.06 50.21 L 240.14 50.04 L 240.56 49.54 L 240.56 48.79 L 240.31 48.38 L 239.14 47.29 L 236.31 47.21 L 235.64 46.71 L 235.56 43.88 L 235.14 43.29 Z" />
    <path d="M 246.14 38.38 L 246.06 38.38 L 245.97 38.46 L 245.81 38.46 L 245.22 39.04 L 245.14 39.04 L 245.06 39.13 L 244.89 39.13 L 244.81 39.21 L 244.39 39.21 L 244.31 39.29 L 244.14 39.29 L 244.06 39.38 L 243.97 39.38 L 243.72 39.63 L 243.72 39.79 L 243.64 39.88 L 243.64 42.46 L 243.72 42.54 L 243.72 42.71 L 243.89 42.88 L 243.89 42.96 L 244.14 43.21 L 244.22 43.21 L 244.56 43.54 L 244.56 43.63 L 244.81 43.88 L 244.89 43.88 L 245.06 44.04 L 245.14 44.04 L 245.22 44.13 L 245.97 44.13 L 246.06 44.04 L 246.14 44.04 L 246.31 43.88 L 246.39 43.88 L 246.64 43.63 L 246.64 43.54 L 247.06 43.13 L 247.14 43.13 L 247.56 42.71 L 247.56 42.63 L 247.97 42.21 L 248.06 42.21 L 248.31 41.96 L 248.31 41.88 L 248.47 41.71 L 248.47 41.63 L 248.56 41.54 L 248.56 40.79 L 248.47 40.71 L 248.47 40.63 L 248.31 40.46 L 248.31 40.38 L 248.06 40.13 L 247.97 40.13 L 247.56 39.71 L 247.56 39.63 L 246.39 38.46 L 246.22 38.46 Z" />
    <path d="M 225.06 38.38 L 224.97 38.46 L 224.81 38.46 L 224.22 39.04 L 224.14 39.04 L 224.06 39.13 L 223.89 39.13 L 223.81 39.21 L 223.39 39.21 L 223.31 39.29 L 223.14 39.29 L 223.06 39.38 L 222.97 39.38 L 222.72 39.63 L 222.72 39.79 L 222.64 39.88 L 222.64 42.46 L 222.72 42.54 L 222.72 42.71 L 222.97 42.96 L 223.06 42.96 L 223.14 43.04 L 223.31 43.04 L 223.39 43.13 L 223.81 43.13 L 223.89 43.21 L 224.06 43.21 L 224.14 43.29 L 224.22 43.29 L 224.81 43.88 L 224.97 43.88 L 225.06 43.96 L 225.14 43.96 L 225.22 43.88 L 225.39 43.88 L 226.56 42.71 L 226.56 42.63 L 226.97 42.21 L 227.06 42.21 L 227.31 41.96 L 227.31 41.88 L 227.47 41.71 L 227.47 41.63 L 227.56 41.54 L 227.56 40.79 L 227.47 40.71 L 227.47 40.63 L 227.31 40.46 L 227.31 40.38 L 227.06 40.13 L 226.97 40.13 L 226.56 39.71 L 226.56 39.63 L 225.39 38.46 L 225.22 38.46 L 225.14 38.38 Z" />
    <path d="M 184.14 36.29 L 172.31 36.21 L 171.72 36.63 L 171.64 64.46 L 171.89 64.96 L 173.22 66.13 L 173.97 66.13 L 174.39 65.88 L 175.56 64.46 L 175.56 55.88 L 175.81 55.38 L 176.81 54.38 L 177.31 54.13 L 185.14 54.04 L 185.97 53.29 L 187.39 52.88 L 188.31 51.96 L 188.81 50.38 L 190.47 48.71 L 190.47 41.63 L 188.81 39.96 L 188.22 38.38 L 187.31 38.21 L 186.22 37.38 L 184.97 37.04 Z M 175.81 41.38 L 176.22 41.04 L 176.81 40.38 L 177.31 40.13 L 182.89 40.13 L 183.39 40.38 L 183.72 40.79 L 185.39 42.38 L 185.64 42.88 L 185.64 48.46 L 185.56 48.71 L 185.06 49.13 L 184.81 49.21 L 184.31 49.21 L 183.72 49.54 L 183.47 49.88 L 183.06 50.13 L 182.39 50.21 L 181.72 50.54 L 181.39 50.96 L 180.89 51.21 L 177.31 51.21 L 176.81 50.96 L 176.47 50.54 L 175.81 49.96 L 175.56 49.46 L 175.56 41.88 Z" />
    <path d="M 254.22 33.21 L 252.64 34.88 L 252.72 64.71 L 254.22 66.13 L 255.14 66.04 L 256.31 64.96 L 256.56 64.46 L 256.56 58.88 L 257.06 58.21 L 257.97 58.13 L 264.81 64.88 L 265.31 65.13 L 266.89 65.13 L 268.22 65.96 L 269.31 64.96 L 269.31 64.38 L 267.81 62.96 L 267.31 61.38 L 261.56 55.54 L 261.81 54.38 L 267.31 48.96 L 267.56 47.79 L 266.89 47.21 L 264.06 47.29 L 263.22 48.04 L 261.81 48.46 L 257.39 52.96 L 257.06 53.04 L 256.56 52.63 L 256.56 34.88 L 255.39 33.46 Z" />
    <path d="M 215.22 33.21 L 213.89 34.38 L 213.64 34.88 L 213.64 62.46 L 213.89 62.96 L 215.81 64.88 L 217.06 65.21 L 218.31 66.13 L 220.14 66.04 L 220.56 65.46 L 220.47 62.63 L 220.06 62.29 L 219.31 62.21 L 218.81 61.96 L 217.81 60.96 L 217.56 60.46 L 217.56 34.88 L 217.31 34.38 L 216.39 33.46 L 215.97 33.21 Z" />
    <path d="M 147.31 33.21 L 146.14 34.13 L 144.06 34.29 L 142.39 35.96 L 140.81 36.46 L 137.89 39.38 L 137.39 40.96 L 135.72 42.63 L 135.64 44.46 L 134.64 45.88 L 134.64 55.46 L 135.47 56.54 L 135.72 57.63 L 136.47 58.54 L 136.89 59.96 L 140.81 63.88 L 142.39 64.38 L 144.06 66.04 L 145.89 66.13 L 147.31 67.13 L 154.89 67.13 L 156.06 66.21 L 158.14 66.04 L 158.97 65.29 L 160.39 64.88 L 161.81 63.38 L 163.22 62.96 L 163.81 61.38 L 166.31 58.96 L 166.64 57.71 L 167.56 56.46 L 167.64 53.63 L 168.56 52.46 L 168.56 47.88 L 167.64 46.71 L 167.56 43.88 L 166.72 42.79 L 166.31 41.38 L 160.39 35.46 L 159.14 35.13 L 157.89 34.21 L 156.06 34.13 L 154.89 33.21 Z M 150.31 42.13 L 151.89 42.13 L 152.39 42.38 L 153.06 43.04 L 154.89 43.13 L 155.39 43.38 L 157.39 45.38 L 157.64 45.96 L 157.72 46.63 L 157.97 47.04 L 158.39 47.38 L 158.64 47.88 L 158.64 52.46 L 158.39 52.96 L 157.81 53.54 L 157.64 53.96 L 157.64 54.38 L 157.39 54.96 L 155.14 57.13 L 153.31 57.21 L 152.81 57.46 L 152.39 57.96 L 151.89 58.21 L 150.31 58.21 L 149.81 57.96 L 149.22 57.38 L 148.81 57.21 L 148.39 57.21 L 147.81 56.96 L 144.81 53.96 L 144.56 53.38 L 144.47 52.71 L 144.22 52.29 L 143.81 51.96 L 143.56 51.46 L 143.56 48.88 L 143.81 48.38 L 144.39 47.79 L 144.56 47.38 L 144.56 46.96 L 144.81 46.38 L 147.81 43.38 L 148.39 43.13 L 149.06 43.04 L 149.47 42.79 L 149.81 42.38 Z" />
    <path d="M 102.06 33.29 L 101.64 33.88 L 101.72 66.71 L 102.31 67.13 L 111.14 67.04 L 111.56 66.46 L 111.64 58.63 L 112.31 58.13 L 115.89 58.13 L 116.47 58.54 L 116.64 59.46 L 117.47 60.54 L 117.89 61.96 L 119.39 63.38 L 119.89 64.96 L 122.06 67.04 L 131.14 67.04 L 131.56 66.54 L 131.56 65.79 L 130.72 64.79 L 129.31 61.38 L 127.81 59.96 L 126.39 56.54 L 125.56 55.54 L 125.56 54.79 L 126.39 53.79 L 126.64 52.71 L 128.56 49.46 L 128.56 41.88 L 127.72 40.79 L 127.31 39.38 L 125.81 37.96 L 125.39 36.54 L 123.81 35.96 L 122.39 34.46 L 121.14 34.13 L 119.89 33.21 Z M 112.06 41.21 L 112.22 41.21 L 112.31 41.13 L 117.89 41.13 L 118.39 41.38 L 118.72 41.71 L 118.72 41.79 L 120.39 43.38 L 120.64 43.88 L 120.64 47.46 L 120.39 47.96 L 120.06 48.29 L 119.97 48.29 L 118.39 49.96 L 117.89 50.21 L 112.31 50.21 L 112.22 50.13 L 112.06 50.13 L 111.64 49.71 L 111.64 49.54 L 111.56 49.46 L 111.56 41.88 L 111.64 41.79 L 111.64 41.63 Z" />
    <path d="M 69.06 33.29 L 68.64 33.88 L 68.64 57.46 L 69.47 58.54 L 70.89 61.96 L 73.81 64.88 L 75.06 65.21 L 78.31 67.13 L 85.89 67.13 L 86.97 66.29 L 90.39 64.88 L 93.31 61.96 L 93.64 60.71 L 95.56 57.46 L 95.47 33.63 L 94.89 33.21 L 87.31 33.21 L 85.72 34.63 L 85.64 55.46 L 83.89 57.21 L 80.31 57.21 L 78.56 55.46 L 78.47 34.63 L 76.89 33.21 Z" />
    <path d="M 46.31 33.21 L 45.72 33.71 L 45.72 34.63 L 47.47 36.63 L 46.47 38.79 L 45.89 39.21 L 43.31 39.21 L 42.72 38.71 L 42.39 37.54 L 41.81 37.54 L 41.56 38.04 L 41.72 66.71 L 42.31 67.13 L 62.14 67.04 L 62.56 66.46 L 62.56 61.71 L 62.06 61.38 L 60.89 62.21 L 60.06 62.13 L 59.31 60.38 L 57.97 59.21 L 57.22 59.21 L 55.97 60.21 L 55.22 60.21 L 53.89 59.21 L 50.31 59.21 L 49.22 60.04 L 47.81 60.46 L 46.14 62.13 L 45.22 62.21 L 43.64 60.71 L 43.56 58.88 L 45.06 57.29 L 46.31 58.13 L 48.14 58.04 L 48.56 57.46 L 48.56 54.88 L 49.06 54.21 L 51.14 54.04 L 54.31 52.13 L 59.89 52.13 L 60.39 51.79 L 60.56 50.88 L 61.56 49.46 L 61.31 47.38 L 59.97 46.21 L 59.06 46.29 L 58.64 46.88 L 58.56 48.71 L 57.39 49.96 L 56.89 49.96 L 56.39 48.54 L 54.97 48.04 L 54.14 46.29 L 52.06 46.13 L 50.81 44.96 L 50.56 41.88 L 51.31 41.13 L 59.89 41.13 L 60.97 40.29 L 62.22 39.96 L 62.56 39.46 L 62.47 33.63 L 61.89 33.21 Z M 49.97 51.29 L 50.22 51.29 L 50.47 51.54 L 50.47 51.79 L 50.22 52.04 L 49.97 52.04 L 49.72 51.79 L 49.72 51.54 Z" />
    <path d="M 43.89 33.21 L 42.31 33.21 L 42.22 33.29 L 42.06 33.29 L 41.72 33.63 L 41.72 33.79 L 41.64 33.88 L 41.64 35.46 L 41.72 35.54 L 41.72 35.63 L 41.81 35.71 L 41.81 35.79 L 41.97 35.96 L 42.06 35.96 L 42.14 36.04 L 42.31 36.04 L 42.39 36.13 L 42.89 36.13 L 42.97 36.04 L 43.14 36.04 L 43.31 35.88 L 43.39 35.88 L 43.64 35.63 L 43.64 35.54 L 44.39 34.79 L 44.39 34.71 L 44.47 34.63 L 44.47 34.38 L 44.56 34.29 L 44.56 34.04 L 44.47 33.96 L 44.47 33.71 L 44.31 33.54 L 44.31 33.46 L 44.22 33.38 L 44.14 33.38 L 44.06 33.29 L 43.97 33.29 Z" />
  </g>
</svg>